<?xml version="1.0" encoding="utf-8"?>
<!-- Generator: Adobe Illustrator 24.0.3, SVG Export Plug-In . SVG Version: 6.00 Build 0)  -->
<svg version="1.1" id="Capa_1" xmlns="http://www.w3.org/2000/svg" xmlns:xlink="http://www.w3.org/1999/xlink" x="0px" y="0px"
	 viewBox="0 0 68 68" style="enable-background:new 0 0 68 68;" xml:space="preserve">
<style type="text/css">
	.st0{fill:#B3B3B3;}
</style>
<g>
	<g>
		<path class="st0" d="M41.288,22.987c-2.191-2.224-5.067-3.371-8.112-3.253c-5.838,0.245-10.599,5.459-10.617,11.633
			c-0.009,2.734,0.9,5.4,2.562,7.497c2.394,3.038,3.712,6.87,3.712,10.8c0,0-0.251,1.803,0.965,1.803h7.648
			c1.244,0,0.965-1.803,0.965-1.803c0-3.842,1.336-7.644,3.87-10.996c1.568-2.087,2.404-4.596,2.404-7.262
			C44.684,28.201,43.478,25.202,41.288,22.987L41.288,22.987z M40.768,37.393c-2.757,3.646-4.232,7.801-4.288,12.035h-5.717
			c-0.056-4.322-1.522-8.527-4.158-11.869c-1.364-1.735-2.116-3.93-2.107-6.184c0.019-5.096,3.944-9.398,8.761-9.604
			c2.516-0.098,4.891,0.853,6.692,2.685c1.809,1.833,2.803,4.302,2.803,6.949C42.745,33.611,42.067,35.678,40.768,37.393
			L40.768,37.393z M40.768,37.393"/>
		<path class="st0" d="M46.355,16.293c-0.381-0.402-0.993-0.402-1.365,0l-2.357,2.489c-0.38,0.401-0.38,1.048,0,1.44
			c0.381,0.392,0.993,0.402,1.365,0l2.357-2.489C46.735,17.342,46.735,16.695,46.355,16.293L46.355,16.293z M46.355,16.293"/>
		<path class="st0" d="M37.482,52.859h-7.721c-0.538,0-0.965,0.46-0.965,1.019c0,0.569,0.436,1.019,0.965,1.019h7.721
			c0.538,0,0.965-0.46,0.965-1.019C38.448,53.319,38.011,52.859,37.482,52.859L37.482,52.859z M37.482,52.859"/>
		<path class="st0" d="M36.026,56.7h-4.799c-0.538,0-0.965,0.46-0.965,1.019c0,0.568,0.436,1.019,0.965,1.019h4.799
			c0.538,0,0.965-0.461,0.965-1.019C36.99,57.161,36.554,56.7,36.026,56.7L36.026,56.7z M36.026,56.7"/>
		<path class="st0" d="M33.621,16.283c0.538,0,0.965-0.46,0.965-1.019v-3.518c0-0.568-0.436-1.019-0.965-1.019
			c-0.529,0-0.965,0.461-0.965,1.019v3.518C32.656,15.833,33.083,16.283,33.621,16.283L33.621,16.283z M33.621,16.283"/>
		<path class="st0" d="M24.61,20.233c0.381-0.402,0.381-1.049,0-1.441l-2.357-2.489c-0.38-0.402-0.993-0.402-1.364,0
			c-0.372,0.402-0.381,1.048,0,1.441l2.357,2.489C23.626,20.625,24.239,20.625,24.61,20.233L24.61,20.233z M24.61,20.233"/>
		<path class="st0" d="M50.661,28.72h-3.332c-0.538,0-0.965,0.461-0.965,1.019c0,0.559,0.436,1.019,0.965,1.019h3.332
			c0.538,0,0.965-0.46,0.965-1.019C51.626,29.181,51.19,28.72,50.661,28.72L50.661,28.72z M50.661,28.72"/>
		<path class="st0" d="M19.914,28.72h-3.332c-0.538,0-0.965,0.461-0.965,1.019c0,0.559,0.436,1.019,0.965,1.019h3.332
			c0.538,0,0.965-0.46,0.965-1.019C20.879,29.181,20.452,28.72,19.914,28.72L19.914,28.72z M19.914,28.72"/>
	</g>
</g>
</svg>
