<?xml version="1.0" encoding="utf-8"?>
<!-- Generator: Adobe Illustrator 24.0.3, SVG Export Plug-In . SVG Version: 6.00 Build 0)  -->
<svg version="1.1" id="Capa_1" xmlns="http://www.w3.org/2000/svg" xmlns:xlink="http://www.w3.org/1999/xlink" x="0px" y="0px"
	 viewBox="0 0 68 68" style="enable-background:new 0 0 68 68;" xml:space="preserve">
<style type="text/css">
	.st0{fill:#B3B3B3;}
</style>
<g>
	<g>
		<g>
			<path class="st0" d="M5.39,26.844v0.631c0,0.758,0.638,1.374,1.422,1.374h1.441v4.395c0,1.009,0.5,2.424,1.138,3.221l6.227,7.782
				c-0.284,0.181-0.55,0.389-0.791,0.619h-1.554c-0.784,0-1.422,0.617-1.422,1.374v0.631c0,0.758,0.638,1.374,1.422,1.374h0.024
				c-0.002,0.054-0.004,0.107-0.004,0.162c0,2.746,2.312,4.981,5.155,4.981c2.843,0,5.155-2.235,5.155-4.981
				c0-0.054-0.002-0.108-0.005-0.162h17.78c-0.002,0.054-0.004,0.107-0.004,0.162c0,2.746,2.312,4.981,5.155,4.981
				c2.842,0,5.155-2.235,5.155-4.981c0-0.054-0.002-0.108-0.004-0.162h5.58c0.785,0,1.422-0.617,1.422-1.374v-0.631
				c0-0.705-0.553-1.287-1.26-1.365v-1.284c0-0.319,0-1.166-3.402-6.785c-1.568-2.59-3.156-5.031-3.317-5.279
				c-0.524-0.972-1.239-1.866-2.868-1.866h-5.46c-0.009,0.001-0.526,0.007-1.158,0.007h-0.891c-0.799,0-1.497,0.524-1.695,1.274
				l-0.019,0.07v13.853h-1.9V28.602c0-0.568,0.479-1.03,1.066-1.03h7.62c1.134,0,2.426-0.763,2.944-1.737l0.688-1.297
				c0.295-0.556,0.304-1.127,0.026-1.567c-0.279-0.441-0.809-0.693-1.455-0.693h-9.969c-0.602,0-1.167,0.228-1.592,0.64
				c-0.423,0.411-0.654,0.955-0.65,1.531c0.001,0.27-0.107,0.524-0.306,0.718c-0.201,0.195-0.468,0.302-0.752,0.302H6.812
				C6.027,25.469,5.39,26.086,5.39,26.844z M44.065,48.408c0-1.314,1.103-2.379,2.463-2.379c1.36,0,2.462,1.065,2.462,2.379
				c0,1.314-1.102,2.379-2.462,2.379C45.168,50.787,44.065,49.721,44.065,48.408z M41.677,34.323c0-2.033,0.466-2.033,1.238-2.033
				h3.483c0.962,0,1.693,0.097,2.334,1.364c0.604,1.191,2.642,4.423,2.798,4.669c0.113,0.198,0.148,0.38,0.091,0.473
				c-0.058,0.096-0.243,0.154-0.483,0.154H42.85c-0.647,0-1.173-0.508-1.173-1.133V34.323z M25.664,39.43L25.664,39.43h3.143h0.393
				l0.947,0h0l-1.46-2.505l-1.602,0.129l0.821-1.375l0,0l0,0l1.141-1.909l2.282,0l0,0l0,0l1.643,0l-0.862,1.246l0.89,1.551
				c0.167,0.281,0.264,0.607,0.264,0.955c0,0.348-0.097,0.674-0.264,0.955l-1.712,2.864l-0.106,0.177l-0.465,0.778
				c-0.349,0.583-0.967,0.923-1.616,0.955c0,0-0.003,0-0.005,0H28.91c-0.004,0.001-0.008,0-0.012,0l-3.233,0L25.664,39.43
				L25.664,39.43z M24.523,30.02l-1.596,2.487l0.998,1.263h-3.926l-1.963-3.284l1.468,0.112l1.025-1.533
				c0.167-0.281,0.412-0.525,0.723-0.699c0.312-0.174,0.652-0.256,0.989-0.256h3.423h1.141c-0.004,0-0.007,0-0.011,0h0.011
				c0.697,0,1.311,0.348,1.664,0.874c0.001,0.002,0.002,0.003,0.002,0.003l0.095,0.159c0.002,0.003,0.004,0.007,0.005,0.01
				l1.617,2.705l-3.424,1.91l-1.571-2.629l-0.197-0.329L24.523,30.02z M15.984,48.408c0-1.314,1.103-2.379,2.463-2.379
				c1.36,0,2.462,1.065,2.462,2.379c0,1.314-1.102,2.379-2.462,2.379C17.087,50.787,15.984,49.721,15.984,48.408z M15.998,36.646
				c0,0,0.001-0.002,0.003-0.004l0.094-0.158c0.001-0.004,0.004-0.007,0.006-0.009l1.616-2.705l3.424,1.91l-1.572,2.629
				l-0.197,0.329L18.9,39.43l2.863,0l0.798-1.375l0.821,1.375h0v0l1.141,1.91l-1.962,3.285l-0.798-1.375H20.04v0
				c-0.336,0-0.677-0.082-0.988-0.256c-0.312-0.174-0.556-0.418-0.724-0.699l-1.712-2.864l-0.571-0.955
				c0.001,0.001,0.002,0.002,0.002,0.004l-0.002-0.004C15.697,37.892,15.703,37.204,15.998,36.646z"/>
			<line class="st0" x1="25.665" y1="39.43" x2="25.664" y2="39.43"/>
		</g>
		<path class="st0" d="M33.75,24.044H10.434c0,0,9.601-6.184,16.916-6.184S33.75,24.044,33.75,24.044z"/>
	</g>
</g>
</svg>
