<?xml version="1.0" encoding="utf-8"?>
<!-- Generator: Adobe Illustrator 24.0.3, SVG Export Plug-In . SVG Version: 6.00 Build 0)  -->
<svg version="1.1" id="Capa_1" xmlns="http://www.w3.org/2000/svg" xmlns:xlink="http://www.w3.org/1999/xlink" x="0px" y="0px"
	 viewBox="0 0 68 68" style="enable-background:new 0 0 68 68;" xml:space="preserve">
<style type="text/css">
	.st0{fill:#B3B3B3;}
</style>
<g>
	<g>
		<path class="st0" d="M25.719,21.625c0.069,2.258,2.114,4.071,4.641,4.071c2.528,0,4.575-1.814,4.642-4.073
			c-0.006,0-0.012,0.002-0.018,0.002H25.719z"/>
		<path class="st0" d="M25.71,20.292h9.274c0.51,0,0.922-0.371,0.922-0.829c0-0.458-0.412-0.829-0.922-0.829H34.9
			c-0.442-1.898-2.311-3.324-4.553-3.324c-2.241,0-4.111,1.426-4.553,3.324H25.71c-0.51,0-0.923,0.371-0.923,0.829
			C24.788,19.921,25.2,20.292,25.71,20.292L25.71,20.292z"/>
		<g>
			<g>
				<path class="st0" d="M48.892,46.055H45.38V35.624c1.039-0.164,1.738-1.05,1.56-1.986c-0.141-0.738-0.786-1.263-1.56-1.388
					v-6.804c0-0.571-0.515-1.034-1.149-1.034c-0.635,0-1.15,0.463-1.15,1.034v7.035l-3.362,0.516l-4.048-5.374
					c-0.401-0.531-1.071-0.706-1.735-0.73c-0.444-0.016-6.699-0.017-7.419,0c-0.795,0.019-1.575,0.295-1.921,0.981L18.208,40.46
					c-0.44,0.865-0.016,1.887,0.945,2.283c0.979,0.399,2.108,0.003,2.539-0.852l3.09-6.087c0,0.695-0.006,7.824-0.006,21.45
					c0,1.142,1.03,2.068,2.299,2.068c1.269,0,2.299-0.926,2.299-2.068v-12.32h1.677v12.321c0,1.142,1.03,2.068,2.298,2.068
					c1.27,0,2.299-0.926,2.299-2.068c0-11.582-0.006-16.766-0.006-23.521l1.593,2.115c0.415,0.549,1.149,0.846,1.909,0.733
					l3.935-0.603v10.077h-3.513c-0.635,0-1.15,0.463-1.15,1.034c0,0.571,0.515,1.034,1.15,1.034v2.463
					c0,1.182,0.439,2.282,1.173,3.185c0.381-0.203,0.814-0.335,1.283-0.36c0.618-0.678,1.545-1.096,2.558-1.096
					c1.051,0,2.021,0.45,2.644,1.181c0.196,0.044,0.373,0.124,0.554,0.198c0.696-0.888,1.114-1.958,1.114-3.106v-2.464
					c0.635,0,1.15-0.463,1.15-1.034C50.042,46.518,49.527,46.055,48.892,46.055L48.892,46.055z"/>
			</g>
			<path class="st0" d="M48.219,56.592c0.028-0.11,0.045-0.223,0.045-0.341c0-0.82-0.739-1.485-1.651-1.485
				c-0.112,0-0.221,0.01-0.327,0.03c-0.252-0.638-0.91-1.103-1.705-1.103c-0.856,0-1.545,0.543-1.743,1.258
				c-0.195-0.097-0.406-0.167-0.644-0.167c-0.745,0-1.35,0.544-1.35,1.214c0,0.214,0.077,0.404,0.186,0.579
				c-0.813,0.035-1.463,0.627-1.463,1.366c0,0.761,0.686,1.378,1.533,1.378h6.962c0.847,0,1.533-0.617,1.533-1.378
				C49.596,57.231,48.988,56.665,48.219,56.592L48.219,56.592z"/>
		</g>
	</g>
</g>
</svg>
