<?xml version="1.0" encoding="utf-8"?>
<!-- Generator: Adobe Illustrator 24.0.3, SVG Export Plug-In . SVG Version: 6.00 Build 0)  -->
<svg version="1.1" id="Capa_1" xmlns="http://www.w3.org/2000/svg" xmlns:xlink="http://www.w3.org/1999/xlink" x="0px" y="0px"
	 viewBox="0 0 68 68" style="enable-background:new 0 0 68 68;" xml:space="preserve">
<style type="text/css">
	.st0{fill:#B3B3B3;}
</style>
<g>
	<g>
		<path class="st0" d="M43.549,52.253c-2.568,1.438-5.543,2.198-8.603,2.198c-7.145,0-13.313-4.142-15.34-9.965l1.814,1.018
			l1.321-1.819l-5.312-2.983l-3.391,4.672l2.069,1.162l1.113-1.534c2.296,6.775,9.442,11.607,17.727,11.607
			c3.528,0,6.958-0.877,9.921-2.536c2.882-1.614,5.199-3.891,6.7-6.585l-2.204-0.95C48.061,48.877,46.05,50.853,43.549,52.253z"/>
		<g>
			<path class="st0" d="M33.479,26.754v1.628c0,0.56-0.307,1.092-0.825,1.348c-0.6,0.297-1.316,0.185-1.785-0.266l-1.11-1.066
				l-1.044,1.002l2.592,2.487c0.288,0.277,0.448,0.646,0.448,1.039v10.844c0,0.712,0.602,1.289,1.343,1.289h2.237
				c0.742,0,1.343-0.577,1.343-1.289v-9.213c0-0.392,0.16-0.761,0.448-1.038l2.149-2.062l-1.044-1.002l-0.666,0.639
				c-0.469,0.45-1.184,0.562-1.783,0.266c-0.519-0.255-0.827-0.787-0.827-1.347v-3.26H33.479z M33.479,26.754"/>
			<path class="st0" d="M54,21.247c0-4.733-3.825-8.625-8.665-8.976c-1.688-4.568-6.207-7.675-11.341-7.675
				c-5.134,0-9.652,3.107-11.341,7.676c-4.838,0.351-8.664,4.242-8.664,8.975c0,2.415,0.997,4.697,2.763,6.381
				c-0.071,0.42-0.107,0.844-0.107,1.269c0,4.361,3.696,7.909,8.24,7.909h4.896v-3.702l-2.775-2.664
				c-0.289-0.277-0.448-0.645-0.448-1.038c0-0.392,0.159-0.76,0.448-1.038l1.67-1.603c0.596-0.572,1.566-0.572,2.163,0l0.667,0.64
				v-1.071c0-0.809,0.686-1.467,1.529-1.467h2.362c0.844,0,1.529,0.658,1.529,1.467v2.702l0.223-0.214
				c0.288-0.277,0.673-0.43,1.081-0.43c0.408,0,0.792,0.153,1.081,0.43l1.67,1.603c0.596,0.572,0.596,1.504,0,2.076l-2.332,2.238
				v2.072h4.452c4.544,0,8.24-3.548,8.24-7.909c0-0.425-0.036-0.849-0.107-1.269C53.003,25.945,54,23.662,54,21.247L54,21.247z
				 M54,21.247"/>
		</g>
	</g>
</g>
</svg>
