<?xml version="1.0" encoding="utf-8"?>
<!-- Generator: Adobe Illustrator 24.0.3, SVG Export Plug-In . SVG Version: 6.00 Build 0)  -->
<svg version="1.1" id="Capa_1" xmlns="http://www.w3.org/2000/svg" xmlns:xlink="http://www.w3.org/1999/xlink" x="0px" y="0px"
	 viewBox="0 0 68 68" style="enable-background:new 0 0 68 68;" xml:space="preserve">
<style type="text/css">
	.st0{fill:#B3B3B3;}
</style>
<g>
	<g>
		<g>
			<path class="st0" d="M24.122,43.942h-5.437c-0.526,0-0.877,0.344-0.877,0.861c0.175,2.584,5.437,7.406,6.664,8.612
				c0.175,0.172,0.351,0.344,0.351,0.517v0.517c0,1.895,1.578,3.273,3.332,3.273h12.101c1.929,0,3.332-1.55,3.332-3.273v-0.517
				c0-0.172,0.175-0.517,0.351-0.517c1.228-1.033,6.489-5.856,6.664-8.612c0-0.517-0.351-0.861-0.877-0.861H44.29
				c-0.526,0-0.877-0.344-0.877-0.861v-3.617c0-0.172,0.175-0.517,0.351-0.517c1.228-1.033,6.489-5.856,6.664-8.612
				c0-0.517-0.351-0.861-0.877-0.861h-5.437c-0.526,0-0.877-0.344-0.877-0.861v-3.617c0-0.172,0.175-0.517,0.351-0.517
				c1.228-1.033,6.489-5.856,6.664-8.612c0-0.517-0.351-0.861-0.877-0.861H43.94c-0.526,0-0.877-0.344-0.877-0.861l0,0
				c0-1.895-1.578-3.273-3.332-3.273H27.63c-1.929,0-3.332,1.55-3.332,3.273l0,0c0,0.517-0.351,0.861-0.877,0.861h-4.735
				c-0.526,0-0.877,0.344-0.877,0.861c0.175,2.584,5.437,7.406,6.664,8.612c0.175,0.172,0.351,0.344,0.351,0.517v3.617
				c0,0.517-0.351,0.861-0.877,0.861h-5.261c-0.526,0-0.877,0.344-0.877,0.861c0.175,2.584,5.437,7.406,6.664,8.612
				c0.175,0.172,0.351,0.344,0.351,0.517v3.617C24.824,43.597,24.473,43.942,24.122,43.942L24.122,43.942z M34.294,15.177
				c2.981,0,5.261,2.239,5.261,5.167s-2.28,5.167-5.261,5.167s-5.261-2.239-5.261-5.167S31.313,15.177,34.294,15.177L34.294,15.177z
				 M34.294,29.301c2.981,0,5.261,2.239,5.261,5.167s-2.28,5.167-5.261,5.167s-5.261-2.239-5.261-5.167S31.313,29.301,34.294,29.301
				L34.294,29.301z M34.294,43.425c2.981,0,5.261,2.239,5.261,5.167c0,2.928-2.28,5.167-5.261,5.167s-5.261-2.239-5.261-5.167
				C29.033,45.664,31.313,43.425,34.294,43.425L34.294,43.425z"/>
		</g>
	</g>
</g>
</svg>
